# xmcd
#
# Track frame offsets: 
#        150
#        19217
#        42027
#
# Disc length: 840 seconds
#
# Revision: 1
# Processed by: cddbd v1.5.2PL0 Copyright (c) Steve Scherf et al.
# Submitted via: ExactAudioCopy v1.0b6
#
DISCID=1a034603
DTITLE=浜田省吾 - Thank you SECL-221
DYEAR=2005
DGENRE=JPop
TTITLE0=Thank You
TTITLE1=あの娘は誰
TTITLE2=さよならの前に
EXTD=YEAR: 2005
EXTT0=
EXTT1=
EXTT2=
PLAYORDER=
